# File created by Blade
# Date/Time:  Tue Jan 27 18:02:00 2015
#---------------------------------------------------------
:version 1.10
:name HOM
:units
  mass 1.0
  length 1.000000
  angle deg
:documentation
     Acclaim Skeleton File
:root
   axis xyz
   order TX TY TZ RX RY RZ
   position 0.000000 0.000000 0.000000
   orientation 0 0 0
:bonedata
   begin
      id 1
      name Spine_dum
      direction 0.000000 1.000000 0.000000
      length 5.195262
      axis 0.0 0.0 0.0 xyz
   end
   begin
      id 2
      name LeftUpLeg_dum
      direction 1.000000 0.000000 0.000000
      length 3.351363
      axis 0.0 0.0 0.0 xyz
   end
   begin
      id 3
      name RightUpLeg_dum
      direction -1.000000 0.000000 0.000000
      length 3.351363
      axis 0.0 0.0 0.0 xyz
   end
   begin
      id 4
      name Spine
      direction 0.000000 1.000000 0.000000
      length 0.000000
      axis 0.0 0.0 0.0 xyz
      dof rx ry rz
   end
   begin
      id 5
      name Spine_dum1
      direction 0.000000 1.000000 0.000000
      length 15.653875
      axis 0.0 0.0 0.0 xyz
   end
   begin
      id 6
      name Spine_dum2
      direction 0.000000 1.000000 0.000000
      length 10.329768
      axis 0.0 0.0 0.0 xyz
   end
   begin
      id 7
      name Spine_dum3
      direction 0.000000 1.000000 0.000000
      length 10.329768
      axis 0.0 0.0 0.0 xyz
   end
   begin
      id 8
      name Head
      direction 0.000000 1.000000 0.000000
      length 4.527550
      axis 0.0 0.0 0.0 xyz
      dof rx ry rz
   end
   begin
      id 9
      name LeftShoulder
      direction 1.000000 0.000000 0.000000
      length 6.996006
      axis 0.0 0.0 -90.0 xyz
      dof rx ry rz
   end
   begin
      id 10
      name LeftArm
      direction 1.000000 0.000000 0.000000
      length 10.209302
      axis 0.0 0.0 -90.0 xyz
      dof rx ry rz
   end
   begin
      id 11
      name LeftForeArm
      direction 1.000000 0.000000 0.000000
      length 8.563163
      axis 0.0 0.0 -90.0 xyz
      dof ry rz rx
   end
   begin
      id 12
      name LeftHand
      direction 0.000000 0.000000 0.000000
      length 0.000000
      axis 0.0 0.0 -90.0 xyz
      dof rx ry rz
   end
   begin
      id 13
      name LeftHand_dum1
      direction 0.000000 0.000000 0.000000
      length 0.000000
      axis 0.0 0.0 -90.0 xyz
   end
   begin
      id 14
      name LeftHand_dum2
      direction 1.000000 0.000000 0.000000
      length 3.937000
      axis 0.0 0.0 -90.0 xyz
   end
   begin
      id 15
      name LeftHandThumb1
      direction 0.000000 0.000000 1.000000
      length 3.937000
      axis 0.0 0.0 -90.0 xyz
      dof rx rz ry
   end
   begin
      id 16
      name RightShoulder
      direction -1.000000 0.000000 0.000000
      length 6.996006
      axis 0.0 0.0 90.0 xyz
      dof rx ry rz
   end
   begin
      id 17
      name RightArm
      direction -1.000000 0.000000 0.000000
      length 10.209302
      axis 0.0 0.0 90.0 xyz
      dof rx ry rz
   end
   begin
      id 18
      name RightForeArm
      direction -1.000000 0.000000 0.000000
      length 8.563163
      axis 0.0 0.0 90.0 xyz
      dof ry rz rx
   end
   begin
      id 19
      name RightHand
      direction 0.000000 0.000000 0.000000
      length 0.000000
      axis 0.0 0.0 90.0 xyz
      dof rx ry rz
   end
   begin
      id 20
      name RightHand_dum1
      direction 0.000000 0.000000 0.000000
      length 0.000000
      axis 0.0 0.0 90.0 xyz
   end
   begin
      id 21
      name RightHand_dum2
      direction -1.000000 0.000000 0.000000
      length 3.937000
      axis 0.0 0.0 90.0 xyz
   end
   begin
      id 22
      name RightHandThumb1
      direction 0.000000 0.000000 1.000000
      length 3.937000
      axis 0.0 0.0 90.0 xyz
      dof rx rz ry
   end
   begin
      id 23
      name LeftUpLeg
      direction 0.000000 -1.000000 0.000000
      length 16.346831
      axis 0.0 0.0 0.0 xyz
      dof rx ry rz
   end
   begin
      id 24
      name LeftLeg
      direction 0.000000 -1.000000 0.000000
      length 13.959795
      axis 0.0 0.0 0.0 xyz
      dof rx ry rz
   end
   begin
      id 25
      name LeftFoot
      direction 0.000000 -0.258819 0.965926
      length 5.165550
      axis 15.0 0.0 0.0 xyz
      dof rx ry rz
   end
   begin
      id 26
      name LeftToeBase
      direction 0.000000 0.000000 1.000000
      length 2.952750
      axis 0.0 0.0 0.0 xyz
      dof rx ry rz
   end
   begin
      id 27
      name RightUpLeg
      direction 0.000000 -1.000000 0.000000
      length 16.346831
      axis 0.0 0.0 0.0 xyz
      dof rx ry rz
   end
   begin
      id 28
      name RightLeg
      direction 0.000000 -1.000000 0.000000
      length 13.959795
      axis 0.0 0.0 0.0 xyz
      dof rx ry rz
   end
   begin
      id 29
      name RightFoot
      direction 0.000000 -0.258819 0.965926
      length 5.165550
      axis 15.0 0.0 0.0 xyz
      dof rx ry rz
   end
   begin
      id 30
      name RightToeBase
      direction 0.000000 0.000000 1.000000
      length 2.952750
      axis 0.0 0.0 0.0 xyz
      dof rx ry rz
   end
:hierarchy
   begin
      root Spine_dum LeftUpLeg_dum RightUpLeg_dum
      Spine_dum Spine
      LeftUpLeg_dum LeftUpLeg
      RightUpLeg_dum RightUpLeg
      Spine Spine_dum1 Spine_dum2 Spine_dum3
      Spine_dum1 Head
      Spine_dum2 LeftShoulder
      Spine_dum3 RightShoulder
      LeftShoulder LeftArm
      LeftArm LeftForeArm
      LeftForeArm LeftHand
      LeftHand LeftHand_dum1 LeftHand_dum2
      LeftHand_dum1 LeftHandThumb1
      RightShoulder RightArm
      RightArm RightForeArm
      RightForeArm RightHand
      RightHand RightHand_dum1 RightHand_dum2
      RightHand_dum1 RightHandThumb1
      LeftUpLeg LeftLeg
      LeftLeg LeftFoot
      LeftFoot LeftToeBase
      RightUpLeg RightLeg
      RightLeg RightFoot
      RightFoot RightToeBase
   end

# File created by Blade
# Date/Time:  Tue Jan 27 18:01:49 2015
# Frame Rate: 120.000 fps
#------------------------------------------------------
:FULLY-SPECIFIED
:DEGREES
1391
root -1.331227 31.875907 -5.539266 7.805743 24.053254 5.325232
Spine -8.169601 -5.155243 -4.470053
Head 6.603331 -16.516740 -1.595154
LeftShoulder -12.110263 14.987552 7.823070
LeftArm 25.055383 42.079810 -72.693848
LeftForeArm -1.213926 -0.000000 12.308733
LeftHand -11.397053 -0.000000 -6.824379
LeftHandThumb1 -26.253704 0.000000 33.147579
RightShoulder -19.357637 34.341775 -56.746389
RightArm 87.674627 52.680619 93.311597
RightForeArm 32.574705 -0.000000 43.707133
RightHand -6.749652 0.000000 8.250352
RightHandThumb1 -24.326973 -0.000000 -32.862282
LeftUpLeg -2.504098 -10.748838 -0.667936
LeftLeg 0.402626 -0.000000 -0.000000
LeftFoot -13.674300 10.440449 -23.955688
LeftToeBase 8.588871 -0.000000 -0.000000
RightUpLeg 4.980001 -13.710132 -3.567145
RightLeg -3.709156 -0.000000 0.000000
RightFoot -18.475197 -20.147864 12.155816
RightToeBase 5.218443 -0.000000 -0.000000
1392
root -1.329166 31.874424 -5.532190 7.738452 23.912442 5.305119
Spine -8.198167 -5.029984 -4.511415
Head 6.540818 -16.681833 -1.489288
LeftShoulder -12.126469 14.965279 7.869711
LeftArm 25.096767 42.078479 -72.701534
LeftForeArm -1.161986 -0.000000 12.267993
LeftHand -11.355519 -0.000000 -6.786041
LeftHandThumb1 -26.253704 0.000000 33.147579
RightShoulder -19.406391 34.389598 -56.853482
RightArm 86.544044 52.448071 91.152555
RightForeArm 32.347557 -0.000000 39.581479
RightHand -7.457570 -0.000000 7.951917
RightHandThumb1 -24.326973 -0.000000 -32.862282
LeftUpLeg -2.427941 -10.686191 -0.677273
LeftLeg 0.428995 -0.000000 -0.000000
LeftFoot -13.751127 10.479319 -23.995462
LeftToeBase 8.592580 -0.000000 -0.000000
RightUpLeg 5.024629 -13.678288 -3.583621
RightLeg -3.698890 -0.000000 0.000000
RightFoot -18.459723 -20.054911 12.108162
RightToeBase 5.229203 -0.000000 -0.000000
1393
root -1.326392 31.873813 -5.525687 7.670767 23.774117 5.288441
Spine -8.206895 -4.909090 -4.553751
Head 6.389378 -16.885466 -1.352653
LeftShoulder -12.170237 14.962643 7.894143
LeftArm 25.171321 42.054940 -72.677692
LeftForeArm -1.227094 -0.000000 12.261138
LeftHand -11.261304 -0.000000 -6.239317
LeftHandThumb1 -26.253704 0.000000 33.147579
RightShoulder -19.542411 34.615409 -57.074860
RightArm 84.841720 52.190966 88.418533
RightForeArm 32.487209 -0.000000 35.462354
RightHand -8.342097 -0.000000 7.926075
RightHandThumb1 -24.326973 -0.000000 -32.862282
LeftUpLeg -2.344212 -10.606116 -0.695951
LeftLeg 0.449399 -0.000000 -0.000000
LeftFoot -13.778081 10.507066 -23.889274
LeftToeBase 8.461924 -0.000000 -0.000000
RightUpLeg 5.072006 -13.590098 -3.602626
RightLeg -3.688791 -0.000000 0.000000
RightFoot -18.451210 -20.002769 12.102267
RightToeBase 5.202310 -0.000000 -0.000000
1394
root -1.325721 31.873340 -5.519360 7.598952 23.653900 5.263650
Spine -8.205943 -4.781433 -4.609302
Head 6.234811 -17.107972 -1.165354
LeftShoulder -12.195869 14.949737 7.910480
LeftArm 25.260515 42.040469 -72.628276
LeftForeArm -1.248238 -0.000000 12.217415
LeftHand -11.247036 0.000000 -6.710979
LeftHandThumb1 -26.253704 0.000000 33.147579
RightShoulder -19.706105 34.629137 -57.278370
RightArm 83.023849 51.855570 85.488355
RightForeArm 32.452733 -0.000000 31.508725
RightHand -9.485297 -0.000000 7.698550
RightHandThumb1 -24.326973 -0.000000 -32.862282
LeftUpLeg -2.270893 -10.553056 -0.696312
LeftLeg 0.478939 -0.000000 -0.000000
LeftFoot -13.848849 10.520886 -23.961798
LeftToeBase 8.458550 -0.000000 -0.000000
RightUpLeg 5.120839 -13.540995 -3.610763
RightLeg -3.679024 -0.000000 0.000000
RightFoot -18.438641 -19.925371 12.086133
RightToeBase 5.203204 -0.000000 -0.000000
1395
root -1.325315 31.873229 -5.514531 7.529539 23.559467 5.250264
Spine -8.199481 -4.694284 -4.675000
Head 6.081396 -17.307821 -0.968438
LeftShoulder -12.221412 14.928751 7.914348
LeftArm 25.313102 41.972389 -72.607219
LeftForeArm -1.245820 -0.000000 12.186079
LeftHand -11.144730 -0.000000 -6.177591
LeftHandThumb1 -26.253704 0.000000 33.147579
RightShoulder -19.869085 34.445226 -57.435245
RightArm 81.446549 51.395094 82.796689
RightForeArm 32.169605 -0.000000 27.780605
RightHand -10.962356 0.000000 7.188973
RightHandThumb1 -24.326973 -0.000000 -32.862282
LeftUpLeg -2.212776 -10.502815 -0.708487
LeftLeg 0.535330 -0.000000 -0.000000
LeftFoot -13.905752 10.552039 -23.951407
LeftToeBase 8.466555 -0.000000 -0.000000
RightUpLeg 5.169235 -13.507811 -3.620924
RightLeg -3.663900 -0.000000 0.000000
RightFoot -18.426469 -19.901383 12.047487
RightToeBase 5.196478 -0.000000 -0.000000
1396
root -1.324293 31.872758 -5.509163 7.463980 23.454198 5.231281
Spine -8.204827 -4.577916 -4.752128
Head 5.925587 -17.533490 -0.736547
LeftShoulder -12.229324 14.903703 7.920636
LeftArm 25.365564 41.913693 -72.578627
LeftForeArm -1.155782 -0.000000 12.166725
LeftHand -11.260471 -0.000000 -6.149250
LeftHandThumb1 -26.253704 0.000000 33.147579
RightShoulder -20.020680 34.025194 -57.518449
RightArm 79.975711 50.869009 80.132008
RightForeArm 31.633370 0.000000 24.306515
RightHand -12.715111 -0.000000 6.147554
RightHandThumb1 -24.326973 -0.000000 -32.862282
LeftUpLeg -2.153171 -10.454053 -0.715215
LeftLeg 0.580095 -0.000000 -0.000000
LeftFoot -13.976513 10.586625 -23.957198
LeftToeBase 8.455795 -0.000000 -0.000000
RightUpLeg 5.209922 -13.441893 -3.628980
RightLeg -3.644461 -0.000000 0.000000
RightFoot -18.423434 -19.870910 12.029731
RightToeBase 5.206003 -0.000000 -0.000000
1397
root -1.324445 31.871961 -5.504551 7.402674 23.364088 5.212099
Spine -8.203894 -4.504538 -4.824078
Head 5.779289 -17.722910 -0.516974
LeftShoulder -12.278051 14.846848 7.911352
LeftArm 25.382456 41.851853 -72.572501
LeftForeArm -1.129965 -0.000000 12.139250
LeftHand -11.243141 -0.000000 -5.937747
LeftHandThumb1 -26.253704 0.000000 33.147579
RightShoulder -20.051517 32.967040 -57.159296
RightArm 79.965559 50.276696 78.547266
RightForeArm 30.964652 -0.000000 20.961715
RightHand -14.376464 -0.000000 5.431059
RightHandThumb1 -24.326973 -0.000000 -32.862282
LeftUpLeg -2.103991 -10.429250 -0.717272
LeftLeg 0.630284 -0.000000 -0.000000
LeftFoot -14.055660 10.629854 -23.976947
LeftToeBase 8.502362 -0.000000 -0.000000
RightUpLeg 5.243551 -13.399136 -3.631506
RightLeg -3.619503 -0.000000 0.000000
RightFoot -18.436000 -19.816357 12.033936
RightToeBase 5.254048 -0.000000 -0.000000
1398
root -1.326641 31.871123 -5.500397 7.345330 23.280233 5.187439
Spine -8.193933 -4.448273 -4.908114
Head 5.643675 -17.862543 -0.228972
LeftShoulder -12.330866 14.773957 7.904419
LeftArm 25.369475 41.779480 -72.587494
LeftForeArm -1.141207 -0.000000 12.097558
LeftHand -11.300261 0.000000 -5.857006
LeftHandThumb1 -26.253704 0.000000 33.147579
RightShoulder -20.184243 32.444326 -57.166694
RightArm 78.811774 49.675045 76.344851
RightForeArm 30.463807 -0.000000 18.118785
RightHand -16.432506 -0.000000 3.855364
RightHandThumb1 -24.326973 -0.000000 -32.862282
LeftUpLeg -2.074862 -10.345109 -0.715932
LeftLeg 0.710889 -0.000000 -0.000000
LeftFoot -14.129535 10.626517 -24.014709
LeftToeBase 8.462887 -0.000000 -0.000000
RightUpLeg 5.266880 -13.336974 -3.622255
RightLeg -3.587012 -0.000000 0.000000
RightFoot -18.446466 -19.797122 12.023695
RightToeBase 5.221810 -0.000000 -0.000000
1399
root -1.329915 31.870456 -5.497488 7.286841 23.210025 5.160455
Spine -8.186138 -4.418403 -5.001333
Head 5.523079 -18.005526 0.046110
LeftShoulder -12.378634 14.724539 7.899016
LeftArm 25.371676 41.695083 -72.598311
LeftForeArm -1.091699 -0.000000 12.041504
LeftHand -11.225550 -0.000000 -5.801535
LeftHandThumb1 -26.253704 0.000000 33.147579
RightShoulder -20.184468 31.645787 -56.997258
RightArm 78.391135 49.190998 75.101099
RightForeArm 30.581265 -0.000000 15.794922
RightHand -18.621618 -0.000000 2.526887
RightHandThumb1 -24.326973 -0.000000 -32.862282
LeftUpLeg -2.050943 -10.306043 -0.701693
LeftLeg 0.787867 -0.000000 -0.000000
LeftFoot -14.206229 10.621576 -24.033808
LeftToeBase 8.504067 -0.000000 -0.000000
RightUpLeg 5.286578 -13.317013 -3.611032
RightLeg -3.549039 -0.000000 0.000000
RightFoot -18.443702 -19.754894 11.989370
RightToeBase 5.194445 -0.000000 -0.000000
